<svg width="130" height="220" viewBox="0 0 130 220" fill="none" xmlns="http://www.w3.org/2000/svg">
  <rect x="56" y="22" width="18" height="188" fill="#66BB6A" rx="9" />

  <rect x="26" y="76" width="14" height="58" fill="#66BB6A" rx="7" />
  <rect x="33" y="76" width="23" height="14" fill="#66BB6A" rx="7" />

  <rect x="90" y="90" width="14" height="45" fill="#66BB6A" rx="7" />
  <rect x="74" y="90" width="23" height="14" fill="#66BB6A" rx="7" />

  <line x1="61" y1="24" x2="61" y2="208" stroke="#558B5A" stroke-width="2" opacity="0.5" />
  <line x1="69" y1="24" x2="69" y2="208" stroke="#558B5A" stroke-width="2" opacity="0.5" />

  <line x1="53" y1="35" x2="50" y2="35" stroke="#E0E0E0" stroke-width="2" stroke-linecap="round" />
  <line x1="53" y1="48" x2="50" y2="48" stroke="#E0E0E0" stroke-width="2" stroke-linecap="round" />
  <line x1="53" y1="61" x2="50" y2="61" stroke="#E0E0E0" stroke-width="2" stroke-linecap="round" />
  <line x1="53" y1="74" x2="50" y2="74" stroke="#E0E0E0" stroke-width="2" stroke-linecap="round" />
  <line x1="53" y1="87" x2="50" y2="87" stroke="#E0E0E0" stroke-width="2" stroke-linecap="round" />
  <line x1="53" y1="100" x2="50" y2="100" stroke="#E0E0E0" stroke-width="2" stroke-linecap="round" />
  <line x1="53" y1="113" x2="50" y2="113" stroke="#E0E0E0" stroke-width="2" stroke-linecap="round" />
  <line x1="53" y1="126" x2="50" y2="126" stroke="#E0E0E0" stroke-width="2" stroke-linecap="round" />
  <line x1="53" y1="139" x2="50" y2="139" stroke="#E0E0E0" stroke-width="2" stroke-linecap="round" />
  <line x1="53" y1="152" x2="50" y2="152" stroke="#E0E0E0" stroke-width="2" stroke-linecap="round" />
  <line x1="53" y1="165" x2="50" y2="165" stroke="#E0E0E0" stroke-width="2" stroke-linecap="round" />
  <line x1="53" y1="178" x2="50" y2="178" stroke="#E0E0E0" stroke-width="2" stroke-linecap="round" />
  <line x1="53" y1="191" x2="50" y2="191" stroke="#E0E0E0" stroke-width="2" stroke-linecap="round" />

  <line x1="77" y1="35" x2="80" y2="35" stroke="#E0E0E0" stroke-width="2" stroke-linecap="round" />
  <line x1="77" y1="48" x2="80" y2="48" stroke="#E0E0E0" stroke-width="2" stroke-linecap="round" />
  <line x1="77" y1="61" x2="80" y2="61" stroke="#E0E0E0" stroke-width="2" stroke-linecap="round" />
  <line x1="77" y1="74" x2="80" y2="74" stroke="#E0E0E0" stroke-width="2" stroke-linecap="round" />
  <line x1="77" y1="87" x2="80" y2="87" stroke="#E0E0E0" stroke-width="2" stroke-linecap="round" />
  <line x1="77" y1="100" x2="80" y2="100" stroke="#E0E0E0" stroke-width="2" stroke-linecap="round" />
  <line x1="77" y1="113" x2="80" y2="113" stroke="#E0E0E0" stroke-width="2" stroke-linecap="round" />
  <line x1="77" y1="126" x2="80" y2="126" stroke="#E0E0E0" stroke-width="2" stroke-linecap="round" />
  <line x1="77" y1="139" x2="80" y2="139" stroke="#E0E0E0" stroke-width="2" stroke-linecap="round" />
  <line x1="77" y1="152" x2="80" y2="152" stroke="#E0E0E0" stroke-width="2" stroke-linecap="round" />
  <line x1="77" y1="165" x2="80" y2="165" stroke="#E0E0E0" stroke-width="2" stroke-linecap="round" />
  <line x1="77" y1="178" x2="80" y2="178" stroke="#E0E0E0" stroke-width="2" stroke-linecap="round" />
  <line x1="77" y1="191" x2="80" y2="191" stroke="#E0E0E0" stroke-width="2" stroke-linecap="round" />

  <line x1="65" y1="28" x2="65" y2="25" stroke="#E0E0E0" stroke-width="2" stroke-linecap="round" />
  <line x1="65" y1="41" x2="65" y2="38" stroke="#E0E0E0" stroke-width="2" stroke-linecap="round" />
  <line x1="65" y1="54" x2="65" y2="51" stroke="#E0E0E0" stroke-width="2" stroke-linecap="round" />
  <line x1="65" y1="67" x2="65" y2="64" stroke="#E0E0E0" stroke-width="2" stroke-linecap="round" />
  <line x1="65" y1="80" x2="65" y2="77" stroke="#E0E0E0" stroke-width="2" stroke-linecap="round" />
  <line x1="65" y1="93" x2="65" y2="90" stroke="#E0E0E0" stroke-width="2" stroke-linecap="round" />
  <line x1="65" y1="106" x2="65" y2="103" stroke="#E0E0E0" stroke-width="2" stroke-linecap="round" />
  <line x1="65" y1="119" x2="65" y2="116" stroke="#E0E0E0" stroke-width="2" stroke-linecap="round" />
  <line x1="65" y1="132" x2="65" y2="129" stroke="#E0E0E0" stroke-width="2" stroke-linecap="round" />
  <line x1="65" y1="145" x2="65" y2="142" stroke="#E0E0E0" stroke-width="2" stroke-linecap="round" />
  <line x1="65" y1="158" x2="65" y2="155" stroke="#E0E0E0" stroke-width="2" stroke-linecap="round" />
  <line x1="65" y1="171" x2="65" y2="168" stroke="#E0E0E0" stroke-width="2" stroke-linecap="round" />
  <line x1="65" y1="184" x2="65" y2="181" stroke="#E0E0E0" stroke-width="2" stroke-linecap="round" />
  <line x1="65" y1="197" x2="65" y2="194" stroke="#E0E0E0" stroke-width="2" stroke-linecap="round" />

  <line x1="24" y1="82" x2="21" y2="82" stroke="#E0E0E0" stroke-width="2" stroke-linecap="round" />
  <line x1="24" y1="92" x2="21" y2="92" stroke="#E0E0E0" stroke-width="2" stroke-linecap="round" />
  <line x1="24" y1="102" x2="21" y2="102" stroke="#E0E0E0" stroke-width="2" stroke-linecap="round" />
  <line x1="24" y1="112" x2="21" y2="112" stroke="#E0E0E0" stroke-width="2" stroke-linecap="round" />
  <line x1="24" y1="122" x2="21" y2="122" stroke="#E0E0E0" stroke-width="2" stroke-linecap="round" />
  <line x1="24" y1="130" x2="21" y2="130" stroke="#E0E0E0" stroke-width="2" stroke-linecap="round" />

  <line x1="106" y1="96" x2="109" y2="96" stroke="#E0E0E0" stroke-width="2" stroke-linecap="round" />
  <line x1="106" y1="106" x2="109" y2="106" stroke="#E0E0E0" stroke-width="2" stroke-linecap="round" />
  <line x1="106" y1="116" x2="109" y2="116" stroke="#E0E0E0" stroke-width="2" stroke-linecap="round" />
  <line x1="106" y1="126" x2="109" y2="126" stroke="#E0E0E0" stroke-width="2" stroke-linecap="round" />

  <ellipse cx="74" cy="22" rx="6" ry="3.5" fill="#FF6F91" transform="rotate(0 74 22)" />
  <ellipse cx="69.5" cy="29.794228634" rx="6" ry="3.5" fill="#FF6F91" transform="rotate(60 69.5 29.794228634)" />
  <ellipse cx="60.5" cy="29.794228634" rx="6" ry="3.5" fill="#FF6F91" transform="rotate(120 60.5 29.794228634)" />
  <ellipse cx="56" cy="22" rx="6" ry="3.5" fill="#FF6F91" transform="rotate(180 56 22)" />
  <ellipse cx="60.5" cy="14.205771366" rx="6" ry="3.5" fill="#FF6F91" transform="rotate(240 60.5 14.205771366)" />
  <ellipse cx="69.5" cy="14.205771366" rx="6" ry="3.5" fill="#FF6F91" transform="rotate(300 69.5 14.205771366)" />
  <circle cx="65" cy="22" r="6" fill="#FFD54F" />

  <ellipse cx="40" cy="72" rx="5" ry="3" fill="#FF6F91" transform="rotate(0 40 72)" />
  <ellipse cx="36.5" cy="78.062177826" rx="5" ry="3" fill="#FF6F91" transform="rotate(60 36.5 78.062177826)" />
  <ellipse cx="29.5" cy="78.062177826" rx="5" ry="3" fill="#FF6F91" transform="rotate(120 29.5 78.062177826)" />
  <ellipse cx="26" cy="72" rx="5" ry="3" fill="#FF6F91" transform="rotate(180 26 72)" />
  <ellipse cx="29.5" cy="65.937822174" rx="5" ry="3" fill="#FF6F91" transform="rotate(240 29.5 65.937822174)" />
  <ellipse cx="36.5" cy="65.937822174" rx="5" ry="3" fill="#FF6F91" transform="rotate(300 36.5 65.937822174)" />
  <circle cx="33" cy="72" r="5" fill="#FFD54F" />

  <ellipse cx="104" cy="86" rx="5" ry="3" fill="#FF80AB" transform="rotate(0 104 86)" />
  <ellipse cx="100.5" cy="92.062177826" rx="5" ry="3" fill="#FF80AB" transform="rotate(60 100.5 92.062177826)" />
  <ellipse cx="93.5" cy="92.062177826" rx="5" ry="3" fill="#FF80AB" transform="rotate(120 93.5 92.062177826)" />
  <ellipse cx="90" cy="86" rx="5" ry="3" fill="#FF80AB" transform="rotate(180 90 86)" />
  <ellipse cx="93.5" cy="79.937822174" rx="5" ry="3" fill="#FF80AB" transform="rotate(240 93.5 79.937822174)" />
  <ellipse cx="100.5" cy="79.937822174" rx="5" ry="3" fill="#FF80AB" transform="rotate(300 100.5 79.937822174)" />
  <circle cx="97" cy="86" r="5" fill="#FFD54F" />
</svg>
