<svg width="90" height="130" viewBox="0 0 90 130" fill="none" xmlns="http://www.w3.org/2000/svg">
  <rect x="36" y="30" width="18" height="78" fill="#66BB6A" rx="9" />

  <line x1="41" y1="32" x2="41" y2="106" stroke="#558B5A" stroke-width="1.5" opacity="0.5" />
  <line x1="49" y1="32" x2="49" y2="106" stroke="#558B5A" stroke-width="1.5" opacity="0.5" />

  <line x1="33" y1="40" x2="30" y2="40" stroke="#E0E0E0" stroke-width="2" stroke-linecap="round" />
  <line x1="33" y1="50" x2="30" y2="50" stroke="#E0E0E0" stroke-width="2" stroke-linecap="round" />
  <line x1="33" y1="60" x2="30" y2="60" stroke="#E0E0E0" stroke-width="2" stroke-linecap="round" />
  <line x1="33" y1="70" x2="30" y2="70" stroke="#E0E0E0" stroke-width="2" stroke-linecap="round" />
  <line x1="33" y1="80" x2="30" y2="80" stroke="#E0E0E0" stroke-width="2" stroke-linecap="round" />
  <line x1="33" y1="90" x2="30" y2="90" stroke="#E0E0E0" stroke-width="2" stroke-linecap="round" />

  <line x1="57" y1="40" x2="60" y2="40" stroke="#E0E0E0" stroke-width="2" stroke-linecap="round" />
  <line x1="57" y1="50" x2="60" y2="50" stroke="#E0E0E0" stroke-width="2" stroke-linecap="round" />
  <line x1="57" y1="60" x2="60" y2="60" stroke="#E0E0E0" stroke-width="2" stroke-linecap="round" />
  <line x1="57" y1="70" x2="60" y2="70" stroke="#E0E0E0" stroke-width="2" stroke-linecap="round" />
  <line x1="57" y1="80" x2="60" y2="80" stroke="#E0E0E0" stroke-width="2" stroke-linecap="round" />
  <line x1="57" y1="90" x2="60" y2="90" stroke="#E0E0E0" stroke-width="2" stroke-linecap="round" />

  <line x1="45" y1="34" x2="45" y2="31" stroke="#E0E0E0" stroke-width="2" stroke-linecap="round" />
  <line x1="45" y1="54" x2="45" y2="51" stroke="#E0E0E0" stroke-width="2" stroke-linecap="round" />
  <line x1="45" y1="74" x2="45" y2="71" stroke="#E0E0E0" stroke-width="2" stroke-linecap="round" />
  <line x1="45" y1="94" x2="45" y2="91" stroke="#E0E0E0" stroke-width="2" stroke-linecap="round" />

  <ellipse cx="58" cy="52" rx="5" ry="9" fill="#7CB87F" />
</svg>
