<svg width="80" height="120" viewBox="0 0 80 120" fill="none" xmlns="http://www.w3.org/2000/svg">
  <rect x="38" y="20" width="4" height="92" fill="#7CB342" rx="2" />

  <ellipse cx="24" cy="80" rx="10" ry="7" fill="#8BC34A" transform="rotate(-30 24 80)" />
  <ellipse cx="56" cy="78" rx="10" ry="7" fill="#8BC34A" transform="rotate(30 56 78)" />

  <ellipse cx="56" cy="20" rx="8" ry="4.5" fill="#FFD54F" transform="rotate(0 56 20)" />
  <ellipse cx="51.3137" cy="31.3137" rx="8" ry="4.5" fill="#FFD54F" transform="rotate(45 51.3137 31.3137)" />
  <ellipse cx="40" cy="36" rx="8" ry="4.5" fill="#FFD54F" transform="rotate(90 40 36)" />
  <ellipse cx="28.6863" cy="31.3137" rx="8" ry="4.5" fill="#FFD54F" transform="rotate(135 28.6863 31.3137)" />
  <ellipse cx="24" cy="20" rx="8" ry="4.5" fill="#FFD54F" transform="rotate(180 24 20)" />
  <ellipse cx="28.6863" cy="8.6863" rx="8" ry="4.5" fill="#FFD54F" transform="rotate(225 28.6863 8.6863)" />
  <ellipse cx="40" cy="4" rx="8" ry="4.5" fill="#FFD54F" transform="rotate(270 40 4)" />
  <ellipse cx="51.3137" cy="8.6863" rx="8" ry="4.5" fill="#FFD54F" transform="rotate(315 51.3137 8.6863)" />

  <circle cx="40" cy="20" r="10" fill="#8D6E63" />

  <circle cx="37" cy="17" r="1.5" fill="#6D4C41" />
  <circle cx="43" cy="17" r="1.5" fill="#6D4C41" />
  <circle cx="35" cy="21" r="1.5" fill="#6D4C41" />
  <circle cx="40" cy="21" r="1.5" fill="#6D4C41" />
  <circle cx="45" cy="21" r="1.5" fill="#6D4C41" />
  <circle cx="37" cy="25" r="1.5" fill="#6D4C41" />
  <circle cx="43" cy="25" r="1.5" fill="#6D4C41" />
</svg>
