<svg width="120" height="200" viewBox="0 -16 120 216" fill="none" xmlns="http://www.w3.org/2000/svg">
  <rect x="57" y="25" width="6" height="165" fill="#7CB342" rx="3" />

  <ellipse cx="34" cy="140" rx="16" ry="11" fill="#8BC34A" transform="rotate(-30 34 140)" />
  <ellipse cx="86" cy="137" rx="16" ry="11" fill="#8BC34A" transform="rotate(30 86 137)" />

  <ellipse cx="86" cy="25" rx="14" ry="7.5" fill="#FFD54F" transform="rotate(0 86 25)" />
  <ellipse cx="78.38477631" cy="43.38477631" rx="14" ry="7.5" fill="#FFD54F" transform="rotate(45 78.38477631 43.38477631)" />
  <ellipse cx="60" cy="51" rx="14" ry="7.5" fill="#FFD54F" transform="rotate(90 60 51)" />
  <ellipse cx="41.61522369" cy="43.38477631" rx="14" ry="7.5" fill="#FFD54F" transform="rotate(135 41.61522369 43.38477631)" />
  <ellipse cx="34" cy="25" rx="14" ry="7.5" fill="#FFD54F" transform="rotate(180 34 25)" />
  <ellipse cx="41.61522369" cy="6.61522369" rx="14" ry="7.5" fill="#FFD54F" transform="rotate(225 41.61522369 6.61522369)" />
  <ellipse cx="60" cy="-1" rx="14" ry="7.5" fill="#FFD54F" transform="rotate(270 60 -1)" />
  <ellipse cx="78.38477631" cy="6.61522369" rx="14" ry="7.5" fill="#FFD54F" transform="rotate(315 78.38477631 6.61522369)" />

  <circle cx="60" cy="25" r="17" fill="#8D6E63" />

  <circle cx="54" cy="19" r="2" fill="#6D4C41" />
  <circle cx="60" cy="19" r="2" fill="#6D4C41" />
  <circle cx="66" cy="19" r="2" fill="#6D4C41" />
  <circle cx="51" cy="25" r="2" fill="#6D4C41" />
  <circle cx="57" cy="25" r="2" fill="#6D4C41" />
  <circle cx="60" cy="25" r="2" fill="#6D4C41" />
  <circle cx="63" cy="25" r="2" fill="#6D4C41" />
  <circle cx="69" cy="25" r="2" fill="#6D4C41" />
  <circle cx="54" cy="31" r="2" fill="#6D4C41" />
  <circle cx="60" cy="31" r="2" fill="#6D4C41" />
  <circle cx="66" cy="31" r="2" fill="#6D4C41" />
</svg>
