<svg width="64" height="80" viewBox="8 6 48 66" fill="none" xmlns="http://www.w3.org/2000/svg">
  <rect x="30" y="10" width="4" height="62" fill="#7CB342" rx="2" />

  <ellipse cx="18" cy="56" rx="10" ry="7" fill="#8BC34A" transform="rotate(-35 18 56)" />
  <path d="M 18 56 Q 26 56 30 54" stroke="#7CB342" stroke-width="2" fill="none" />

  <ellipse cx="46" cy="54" rx="10" ry="7" fill="#8BC34A" transform="rotate(35 46 54)" />
  <path d="M 46 54 Q 38 54 34 52" stroke="#7CB342" stroke-width="2" fill="none" />

  <ellipse cx="20" cy="34" rx="9" ry="6" fill="#9CCC65" transform="rotate(-40 20 34)" />
  <path d="M 20 34 Q 26 34 30 32" stroke="#7CB342" stroke-width="1.5" fill="none" />

  <ellipse cx="44" cy="32" rx="9" ry="6" fill="#9CCC65" transform="rotate(40 44 32)" />
  <path d="M 44 32 Q 38 32 34 30" stroke="#7CB342" stroke-width="1.5" fill="none" />

  <circle cx="32" cy="10" r="5" fill="#AED581" />
  <circle cx="32" cy="10" r="3" fill="#CDDC39" />
</svg>
