<svg width="90" height="130" viewBox="0 0 90 130" fill="none" xmlns="http://www.w3.org/2000/svg">
  <rect x="42" y="15" width="6" height="100" fill="#7CB342" rx="3" />

  <ellipse cx="22" cy="85" rx="15" ry="11" fill="#8BC34A" transform="rotate(-35 22 85)" />
  <path d="M 22 85 Q 34 85 42 82" stroke="#7CB342" stroke-width="2.5" fill="none" />

  <ellipse cx="68" cy="82" rx="15" ry="11" fill="#8BC34A" transform="rotate(35 68 82)" />
  <path d="M 68 82 Q 56 82 48 79" stroke="#7CB342" stroke-width="2.5" fill="none" />

  <ellipse cx="26" cy="50" rx="13" ry="9" fill="#9CCC65" transform="rotate(-40 26 50)" />
  <path d="M 26 50 Q 36 50 42 47" stroke="#7CB342" stroke-width="2" fill="none" />

  <ellipse cx="64" cy="47" rx="13" ry="9" fill="#9CCC65" transform="rotate(40 64 47)" />
  <path d="M 64 47 Q 54 47 48 44" stroke="#7CB342" stroke-width="2" fill="none" />

  <circle cx="45" cy="15" r="8" fill="#AED581" />
  <circle cx="45" cy="15" r="5" fill="#CDDC39" />
</svg>
